<svg width="30" height="30" viewBox="0 0 30 30" fill="none" xmlns="http://www.w3.org/2000/svg">
<g clip-path="url(#clip0_896_228)">
<path d="M22.9187 22.9238H19.5875V17.7025C19.5875 16.4575 19.5625 14.855 17.85 14.855C16.1137 14.855 15.8488 16.21 15.8488 17.6112V22.9238H12.5162V12.1875H15.7162V13.65H15.76C16.2075 12.8075 17.295 11.9163 18.92 11.9163C22.295 11.9163 22.92 14.1387 22.92 17.03V22.9238H22.9187ZM8.75375 10.7188C8.49944 10.7191 8.24757 10.6692 8.01258 10.572C7.77758 10.4748 7.56408 10.3322 7.38432 10.1523C7.20456 9.97241 7.06207 9.75882 6.96501 9.52377C6.86796 9.28871 6.81826 9.03681 6.81875 8.7825C6.819 8.39979 6.93272 8.02575 7.14555 7.70768C7.35838 7.38961 7.66074 7.14179 8.01441 6.99557C8.36808 6.84934 8.75717 6.81127 9.13248 6.88618C9.50778 6.96108 9.85244 7.14559 10.1229 7.41638C10.3933 7.68717 10.5774 8.03208 10.6518 8.40748C10.7262 8.78288 10.6877 9.17192 10.541 9.5254C10.3943 9.87888 10.1461 10.1809 9.82774 10.3933C9.50939 10.6058 9.13521 10.719 8.7525 10.7188H8.75375ZM10.4237 22.9238H7.0825V12.1875H10.425V22.9238H10.4237ZM24.5875 3.75H5.41125C4.49125 3.75 3.75 4.475 3.75 5.37125V24.6287C3.75 25.525 4.4925 26.25 5.41 26.25H24.5825C25.5 26.25 26.25 25.525 26.25 24.6287V5.37125C26.25 4.475 25.5 3.75 24.5825 3.75H24.5863H24.5875Z" fill="white"/>
</g>
<defs>
<clipPath id="clip0_896_228">
<rect width="30" height="30" fill="white"/>
</clipPath>
</defs>
</svg>
