<svg xmlns="http://www.w3.org/2000/svg" version="1.1" xmlns:xlink="http://www.w3.org/1999/xlink" xmlns:svgjs="http://svgjs.dev/svgjs" width="1000" height="482" viewBox="0 0 1000 482"><g transform="matrix(1,0,0,1,-0.6060606060606233,-0.15993049588772124)"><svg viewBox="0 0 396 191" data-background-color="#ffffff" preserveAspectRatio="xMidYMid meet" height="482" width="1000" xmlns="http://www.w3.org/2000/svg" xmlns:xlink="http://www.w3.org/1999/xlink"><g id="tight-bounds" transform="matrix(1,0,0,1,0.2400000000000091,0.0633749475405665)"><svg viewBox="0 0 395.52 190.87325010491887" height="190.87325010491887" width="395.52"><g><svg viewBox="0 0 395.52 190.87325010491887" height="190.87325010491887" width="395.52"><g transform="matrix(1,0,0,1,0,133.19151354011382)"><svg viewBox="0 0 395.52 57.68173656480506" height="57.68173656480506" width="395.52"><g id="textblocktransform"><svg viewBox="0 0 395.52 57.68173656480506" height="57.68173656480506" width="395.52" id="textblock"><g><svg viewBox="0 0 395.52 57.68173656480506" height="57.68173656480506" width="395.52"><g transform="matrix(1,0,0,1,0,0)"><svg width="395.52" viewBox="3.5 -34.3 238.44 34.599999999999994" height="57.68173656480506" data-palette-color="#1b4571"><g class="undefined-text-0" data-fill-palette-color="primary" id="text-0"><path d="M3.5 0L3.5-33.85Q3.85-33.85 5.1-33.88 6.35-33.9 7.9-33.9 9.45-33.9 11-33.93 12.55-33.95 13.55-33.95L13.55-33.95Q19.65-33.95 22.55-31.23 25.45-28.5 25.45-23.75L25.45-23.75Q25.45-21.45 24.65-19.53 23.85-17.6 22.28-16.2 20.7-14.8 18.38-14.03 16.05-13.25 12.95-13.25L12.95-13.25 9.45-13.25 9.45 0 3.5 0ZM9.45-29.65L9.45-17.7 13.3-17.7Q16.45-17.7 17.8-19.35 19.15-21 19.15-23.55L19.15-23.55Q19.15-24.7 18.85-25.8 18.55-26.9 17.82-27.78 17.1-28.65 15.88-29.18 14.65-29.7 12.8-29.7L12.8-29.7Q11.7-29.7 10.88-29.7 10.05-29.7 9.45-29.65L9.45-29.65ZM30.25 0L30.25-33.85 50.35-33.85 50.35-29.35 36.2-29.35 36.2-19.9 47.85-19.9 47.1-15.35 36.2-15.35 36.2-4.5 51.1-4.5 51.1 0 30.25 0ZM52.9-33.85L76.5-33.85 75.75-29.35 67.34-29.35 67.34 0 61.45 0 61.45-29.35 52.9-29.35 52.9-33.85Z" fill="#1b4571" data-fill-palette-color="primary"></path><path d="M89.75-34.3L89.75-34.3Q91.5-34.3 93.1-33.98 94.7-33.65 96.03-33.23 97.35-32.8 98.28-32.35 99.2-31.9 99.55-31.65L99.55-31.65 97.1-27.35 96.45-27.7Q95.8-28.05 94.75-28.5 93.7-28.95 92.45-29.3 91.2-29.65 90.05-29.65L90.05-29.65Q88.25-29.65 86.93-28.8 85.6-27.95 85.6-26.15L85.6-26.15Q85.6-23.9 87.05-22.48 88.5-21.05 91.6-19.85L91.6-19.85Q93.6-19.05 95.18-18.18 96.75-17.3 97.85-16.15 98.95-15 99.53-13.5 100.1-12 100.1-9.9L100.1-9.9Q100.1-8 99.38-6.15 98.65-4.3 97.23-2.88 95.8-1.45 93.7-0.58 91.6 0.3 88.85 0.3L88.85 0.3Q86.9 0.3 85.15-0.1 83.4-0.5 81.98-1.03 80.55-1.55 79.53-2.1 78.5-2.65 78-2.95L78-2.95 80.1-7.55 81-7.05Q81.9-6.55 83.2-5.95 84.5-5.35 85.95-4.85 87.4-4.35 88.45-4.35L88.45-4.35Q91.1-4.35 92.4-5.65 93.7-6.95 93.7-9.3L93.7-9.3Q93.7-10.4 93.35-11.23 93-12.05 92.35-12.65 91.7-13.25 90.78-13.73 89.85-14.2 88.7-14.65L88.7-14.65Q86.45-15.6 84.68-16.55 82.9-17.5 81.65-18.73 80.4-19.95 79.75-21.53 79.1-23.1 79.1-25.3L79.1-25.3Q79.1-27.15 79.9-28.78 80.7-30.4 82.1-31.63 83.5-32.85 85.45-33.58 87.4-34.3 89.75-34.3ZM105.35 0L105.35-33.85 125.45-33.85 125.45-29.35 111.3-29.35 111.3-19.9 122.95-19.9 122.2-15.35 111.3-15.35 111.3-4.5 126.2-4.5 126.2 0 105.35 0ZM127.25 0L140.25-33.85 144.95-33.85 158 0 151.65 0 148.55-8.85 136.35-8.85 133.15 0 127.25 0ZM137.95-13.25L147-13.25Q145.4-17.75 144.25-21.43 143.09-25.1 142.5-27.2L142.5-27.2Q141.8-24.95 140.65-21.3 139.5-17.65 137.95-13.25L137.95-13.25ZM161.24 0L161.24-33.85Q161.59-33.85 162.84-33.88 164.09-33.9 165.64-33.9 167.19-33.9 168.74-33.93 170.29-33.95 171.29-33.95L171.29-33.95Q177.49-33.95 180.34-31.53 183.19-29.1 183.19-24.7L183.19-24.7Q183.19-21.8 181.74-19.55 180.29-17.3 176.99-16.3L176.99-16.3Q178.39-15.5 179.49-14.1 180.59-12.7 181.64-10.68 182.69-8.65 183.79-5.98 184.89-3.3 186.34 0L186.34 0 179.89 0Q178.19-3.95 176.92-6.75 175.64-9.55 174.44-11.3 173.24-13.05 171.87-13.85 170.49-14.65 168.64-14.65L168.64-14.65 167.19-14.65 167.19 0 161.24 0ZM167.19-29.7L167.19-19 171.04-19Q173.84-19 175.37-20.25 176.89-21.5 176.89-23.95L176.89-23.95Q176.89-25.05 176.59-26.1 176.29-27.15 175.57-27.95 174.84-28.75 173.62-29.23 172.39-29.7 170.54-29.7L170.54-29.7 167.19-29.7ZM211.59-30.7L208.54-27.05Q207.34-28.35 206.02-29.03 204.69-29.7 202.94-29.7L202.94-29.7Q200.79-29.7 199.32-28.73 197.84-27.75 196.94-26.03 196.04-24.3 195.64-22 195.24-19.7 195.24-17.05L195.24-17.05Q195.24-14.4 195.62-12.1 195.99-9.8 196.92-8.05 197.84-6.3 199.42-5.3 200.99-4.3 203.39-4.3L203.39-4.3Q204.54-4.3 205.59-4.5 206.64-4.7 207.52-4.93 208.39-5.15 208.97-5.35 209.54-5.55 209.69-5.6L209.69-5.6 211.09-1.4 210.44-1.15Q209.79-0.9 208.62-0.58 207.44-0.25 205.81 0.03 204.19 0.3 202.24 0.3L202.24 0.3Q195.54 0.3 192.17-3.98 188.79-8.25 188.79-16.5L188.79-16.5Q188.79-20.45 189.69-23.73 190.59-27 192.42-29.35 194.24-31.7 197.02-33 199.79-34.3 203.54-34.3L203.54-34.3Q206.54-34.3 208.47-33.2 210.39-32.1 211.59-30.7L211.59-30.7ZM235.99 0L235.99-15.4 222.04-15.4 222.04 0 216.09 0 216.09-33.85 222.04-33.85 222.04-19.75 235.99-19.75 235.99-33.85 241.94-33.85 241.94 0 235.99 0Z" fill="#1b4571" data-fill-palette-color="primary"></path></g></svg></g></svg></g></svg></g></svg></g><g transform="matrix(1,0,0,1,98.2880330923425,0)"><svg viewBox="0 0 198.94393381531498 119.5742398988409" height="119.5742398988409" width="198.94393381531498"><g><svg xmlns="http://www.w3.org/2000/svg" xmlns:xlink="http://www.w3.org/1999/xlink" version="1.1" x="0" y="0" viewBox="3.1320000000000006 23.283000000000005 95.86892508451652 57.621529981114264" enable-background="new 0 0 100 100" xml:space="preserve" height="119.5742398988409" width="198.94393381531498" class="icon-icon-0" data-fill-palette-color="accent" id="icon-0"><path d="M93.65 28.367L85.3 24.768c-2.051-0.739-4.11-0.339-6.175 1.2l-1.039 0.949c-1.185 1.23-2.534 2.512-4.043 3.841-2.052 1.358-3.993 2.439-5.823 3.249-1.441 0.657-2.608 1.628-3.505 2.915-0.339 0.546-0.753 1.389-1.243 2.531-0.158 0.431-0.46 1.682-0.902 3.747-0.438 2.167-0.982 4.081-1.632 5.742-0.52 1.521-1.646 4.288-3.37 8.309-0.93 2.351-1.342 4.081-1.238 5.199 0.121 1.097 0.79 1.951 2.007 2.561 0.676 0.347 1.438 0.373 2.284 0.08 1.222-0.339 2.188-1.295 2.901-2.868 0.816-1.924 1.388-3.249 1.712-3.979 0.56-1.308 1.551-3.226 2.969-5.756 0.501-0.854 1.065-1.641 1.696-2.359l0.89-0.81-0.487 1.094c-2.708 6.451-4.509 10.668-5.404 12.649-0.896 1.917-2.058 3.157-3.485 3.721-1.416 0.507-2.686 0.531-3.813 0.073-0.607-0.274-1.308-0.756-2.104-1.443-0.508 0.53-1.581 1.607-3.219 3.229-5.094 1.54-7.847 2.391-8.259 2.55-0.912 0.413-1.744 0.938-2.494 1.583-0.774 0.741-1.232 1.42-1.376 2.036-0.252 0.599-0.133 1.362 0.359 2.29 0.584 0.879 2.023 1.091 4.32 0.643l12.458-2.105c4.172-3.007 8.4-5.778 12.685-8.315 0.944-0.536 1.636-1.308 2.072-2.31 1.213-3.288 2.727-6.891 4.533-10.808 0.903-1.933 1.795-3.784 2.675-5.557 1.703-3 3.318-5.308 4.845-6.924l0.01-0.022c1.783-1.672 6.376-4.579 13.781-8.72C100.257 31.604 98.847 30.066 93.65 28.367z" fill="#1b4571" data-fill-palette-color="accent"></path><path d="M51.767 57.209v-0.108c-0.166-3.162-0.673-5.013-1.518-5.556-2.842 0.077-4.981-0.549-6.416-1.878-0.73-1.565-1.523-3.281-2.378-5.148-0.502-1.014-1.336-1.939-2.504-2.778-1.043-0.746-2.353-1.42-3.928-2.026 0-0.323-0.003-0.642-0.007-0.955-0.082-10.318-0.943-15.477-2.582-15.477-0.74 0.019-1.191 0.129-1.354 0.329-4.839 2.569-8.514 7.618-11.024 15.148-0.009 0.021-0.017 0.042-0.023 0.063-1.461 0.166-3.579 1.485-6.354 3.958-1.556 1.378-2.833 2.938-3.833 4.68C7.283 51.925 6.543 57.59 7.623 64.455c-0.96 3.202-2.457 5.961-4.491 8.277 2.073 1.919 4.311 3.535 6.713 4.851 6.846 3.751 15.604 4.325 26.273 1.722 0.403-3.469 1.146-5.938 2.23-7.409 1.083-1.472 1.884-2.336 2.402-2.59C47.157 68.022 50.828 63.989 51.767 57.209zM38.951 50.551c-0.144 0.491-0.41 0.947-0.798 1.369-0.616 0.615-1.352 0.924-2.207 0.924-0.866 0-1.591-0.309-2.175-0.924-0.605-0.646-0.908-1.403-0.908-2.269 0-0.866 0.302-1.57 0.908-2.113 0.584-0.646 1.309-0.97 2.175-0.97 0.855 0 1.591 0.323 2.207 0.97 0.388 0.35 0.654 0.759 0.798 1.229 0.083 0.274 0.125 0.569 0.125 0.885C39.076 49.961 39.035 50.262 38.951 50.551z" fill="#1b4571" data-fill-palette-color="accent"></path></svg></g></svg></g><g></g></svg></g><defs></defs></svg><rect width="395.52" height="190.87325010491887" fill="none" stroke="none" visibility="hidden"></rect></g></svg></g></svg>