<svg width="30" height="30" viewBox="0 0 30 30" fill="none" xmlns="http://www.w3.org/2000/svg">
<g clip-path="url(#clip0_896_225)">
<path d="M27.7024 7.07015C26.7481 7.49227 25.7361 7.76949 24.6999 7.89265C25.7921 7.23944 26.6095 6.21142 26.9999 5.00015C25.9749 5.61015 24.8511 6.03765 23.6799 6.2689C22.8931 5.42713 21.8503 4.86886 20.7136 4.68088C19.5768 4.49291 18.4098 4.68577 17.394 5.22947C16.3781 5.77317 15.5704 6.63726 15.0963 7.68739C14.6222 8.73753 14.5083 9.91488 14.7724 11.0364C12.6938 10.9322 10.6603 10.3921 8.80399 9.45098C6.94769 8.50991 5.31004 7.18896 3.99738 5.5739C3.53275 6.37197 3.28858 7.27919 3.28988 8.20265C3.28988 10.0152 4.21238 11.6164 5.61488 12.5539C4.78489 12.5278 3.97317 12.3036 3.24738 11.9002V11.9652C3.24763 13.1723 3.66534 14.3422 4.42969 15.2765C5.19404 16.2108 6.25799 16.852 7.44113 17.0914C6.67065 17.3002 5.86277 17.331 5.07863 17.1814C5.41222 18.2204 6.06239 19.1292 6.93812 19.7803C7.81385 20.4314 8.87129 20.7924 9.96238 20.8127C8.87798 21.6643 7.63635 22.2939 6.30848 22.6654C4.98061 23.0369 3.59254 23.143 2.22363 22.9777C4.61326 24.5144 7.395 25.3303 10.2361 25.3277C19.8524 25.3277 25.1111 17.3614 25.1111 10.4527C25.1111 10.2277 25.1049 10.0002 25.0949 9.77765C26.1185 9.03786 27.0019 8.12143 27.7036 7.0714L27.7024 7.07015Z" fill="white"/>
</g>
<defs>
<clipPath id="clip0_896_225">
<rect width="30" height="30" fill="white"/>
</clipPath>
</defs>
</svg>
